<mxfile host="app.diagrams.net" modified="2023-10-04T22:29:20.595Z" agent="Mozilla/5.0 (Windows NT 10.0; Win64; x64) AppleWebKit/537.36 (KHTML, like Gecko) Chrome/117.0.0.0 Safari/537.36" etag="T4iJuBJImSpTO0MXu2i7" version="21.8.2" type="device">
  <diagram name="Page-1" id="GXn4NyftgjCnc_pro_wv">
    <mxGraphModel dx="2022" dy="640" grid="1" gridSize="10" guides="1" tooltips="1" connect="1" arrows="1" fold="1" page="1" pageScale="1" pageWidth="827" pageHeight="1169" math="0" shadow="0">
      <root>
        <mxCell id="0" />
        <mxCell id="1" parent="0" />
        <mxCell id="5K8NoBRGnNFA0djar0UY-9" value="NewsSite" style="swimlane;fontStyle=0;childLayout=stackLayout;horizontal=1;startSize=26;fillColor=none;horizontalStack=0;resizeParent=1;resizeParentMax=0;resizeLast=0;collapsible=1;marginBottom=0;whiteSpace=wrap;html=1;fontFamily=Lexend;fontSource=https%3A%2F%2Ffonts.googleapis.com%2Fcss%3Ffamily%3DLexend;" parent="1" vertex="1">
          <mxGeometry x="140" y="40" width="140" height="52" as="geometry" />
        </mxCell>
        <mxCell id="5K8NoBRGnNFA0djar0UY-11" value="Name" style="text;strokeColor=none;fillColor=none;align=left;verticalAlign=top;spacingLeft=4;spacingRight=4;overflow=hidden;rotatable=0;points=[[0,0.5],[1,0.5]];portConstraint=eastwest;whiteSpace=wrap;html=1;fontFamily=Lexend;fontSource=https%3A%2F%2Ffonts.googleapis.com%2Fcss%3Ffamily%3DLexend;" parent="5K8NoBRGnNFA0djar0UY-9" vertex="1">
          <mxGeometry y="26" width="140" height="26" as="geometry" />
        </mxCell>
        <mxCell id="J6VYNuphooG4Fi7uj8pG-24" style="edgeStyle=orthogonalEdgeStyle;rounded=0;orthogonalLoop=1;jettySize=auto;html=1;entryX=0.5;entryY=1;entryDx=0;entryDy=0;endArrow=none;endFill=0;" edge="1" parent="1" source="5K8NoBRGnNFA0djar0UY-1" target="5K8NoBRGnNFA0djar0UY-9">
          <mxGeometry relative="1" as="geometry" />
        </mxCell>
        <mxCell id="5K8NoBRGnNFA0djar0UY-1" value="NewsArticle" style="swimlane;fontStyle=0;childLayout=stackLayout;horizontal=1;startSize=26;fillColor=none;horizontalStack=0;resizeParent=1;resizeParentMax=0;resizeLast=0;collapsible=1;marginBottom=0;whiteSpace=wrap;html=1;fontFamily=Lexend;fontSource=https%3A%2F%2Ffonts.googleapis.com%2Fcss%3Ffamily%3DLexend;" parent="1" vertex="1">
          <mxGeometry x="140" y="157" width="140" height="130" as="geometry" />
        </mxCell>
        <mxCell id="5K8NoBRGnNFA0djar0UY-2" value="Title" style="text;align=left;verticalAlign=top;spacingLeft=4;spacingRight=4;overflow=hidden;rotatable=0;points=[[0,0.5],[1,0.5]];portConstraint=eastwest;whiteSpace=wrap;html=1;fillColor=none;fontFamily=Lexend;fontSource=https%3A%2F%2Ffonts.googleapis.com%2Fcss%3Ffamily%3DLexend;" parent="5K8NoBRGnNFA0djar0UY-1" vertex="1">
          <mxGeometry y="26" width="140" height="26" as="geometry" />
        </mxCell>
        <mxCell id="5K8NoBRGnNFA0djar0UY-3" value="Body" style="text;strokeColor=none;fillColor=none;align=left;verticalAlign=top;spacingLeft=4;spacingRight=4;overflow=hidden;rotatable=0;points=[[0,0.5],[1,0.5]];portConstraint=eastwest;whiteSpace=wrap;html=1;fontFamily=Lexend;fontSource=https%3A%2F%2Ffonts.googleapis.com%2Fcss%3Ffamily%3DLexend;" parent="5K8NoBRGnNFA0djar0UY-1" vertex="1">
          <mxGeometry y="52" width="140" height="26" as="geometry" />
        </mxCell>
        <mxCell id="5K8NoBRGnNFA0djar0UY-4" value="Date" style="text;strokeColor=none;fillColor=none;align=left;verticalAlign=top;spacingLeft=4;spacingRight=4;overflow=hidden;rotatable=0;points=[[0,0.5],[1,0.5]];portConstraint=eastwest;whiteSpace=wrap;html=1;fontFamily=Lexend;fontSource=https%3A%2F%2Ffonts.googleapis.com%2Fcss%3Ffamily%3DLexend;" parent="5K8NoBRGnNFA0djar0UY-1" vertex="1">
          <mxGeometry y="78" width="140" height="26" as="geometry" />
        </mxCell>
        <mxCell id="5K8NoBRGnNFA0djar0UY-48" value="Publisher" style="text;strokeColor=none;fillColor=none;align=left;verticalAlign=top;spacingLeft=4;spacingRight=4;overflow=hidden;rotatable=0;points=[[0,0.5],[1,0.5]];portConstraint=eastwest;whiteSpace=wrap;html=1;fontFamily=Lexend;fontSource=https%3A%2F%2Ffonts.googleapis.com%2Fcss%3Ffamily%3DLexend;" parent="5K8NoBRGnNFA0djar0UY-1" vertex="1">
          <mxGeometry y="104" width="140" height="26" as="geometry" />
        </mxCell>
        <mxCell id="J6VYNuphooG4Fi7uj8pG-17" style="edgeStyle=orthogonalEdgeStyle;rounded=0;orthogonalLoop=1;jettySize=auto;html=1;entryX=0.5;entryY=0;entryDx=0;entryDy=0;endArrow=none;endFill=0;" edge="1" parent="1" source="5K8NoBRGnNFA0djar0UY-23" target="5K8NoBRGnNFA0djar0UY-38">
          <mxGeometry relative="1" as="geometry" />
        </mxCell>
        <mxCell id="5K8NoBRGnNFA0djar0UY-23" value="Team" style="swimlane;fontStyle=0;childLayout=stackLayout;horizontal=1;startSize=26;fillColor=none;horizontalStack=0;resizeParent=1;resizeParentMax=0;resizeLast=0;collapsible=1;marginBottom=0;whiteSpace=wrap;html=1;fontFamily=Lexend;fontSource=https%3A%2F%2Ffonts.googleapis.com%2Fcss%3Ffamily%3DLexend;" parent="1" vertex="1">
          <mxGeometry x="100" y="385" width="140" height="78" as="geometry" />
        </mxCell>
        <mxCell id="5K8NoBRGnNFA0djar0UY-24" value="Name" style="text;strokeColor=none;fillColor=none;align=left;verticalAlign=top;spacingLeft=4;spacingRight=4;overflow=hidden;rotatable=0;points=[[0,0.5],[1,0.5]];portConstraint=eastwest;whiteSpace=wrap;html=1;fontFamily=Lexend;fontSource=https%3A%2F%2Ffonts.googleapis.com%2Fcss%3Ffamily%3DLexend;" parent="5K8NoBRGnNFA0djar0UY-23" vertex="1">
          <mxGeometry y="26" width="140" height="26" as="geometry" />
        </mxCell>
        <mxCell id="5K8NoBRGnNFA0djar0UY-30" value="History" style="text;strokeColor=none;fillColor=none;align=left;verticalAlign=top;spacingLeft=4;spacingRight=4;overflow=hidden;rotatable=0;points=[[0,0.5],[1,0.5]];portConstraint=eastwest;whiteSpace=wrap;html=1;fontFamily=Lexend;fontSource=https%3A%2F%2Ffonts.googleapis.com%2Fcss%3Ffamily%3DLexend;" parent="5K8NoBRGnNFA0djar0UY-23" vertex="1">
          <mxGeometry y="52" width="140" height="26" as="geometry" />
        </mxCell>
        <mxCell id="J6VYNuphooG4Fi7uj8pG-12" style="edgeStyle=orthogonalEdgeStyle;rounded=0;orthogonalLoop=1;jettySize=auto;html=1;entryX=1;entryY=0.5;entryDx=0;entryDy=0;endArrow=none;endFill=0;" edge="1" parent="1" source="5K8NoBRGnNFA0djar0UY-31" target="J6VYNuphooG4Fi7uj8pG-3">
          <mxGeometry relative="1" as="geometry" />
        </mxCell>
        <mxCell id="5K8NoBRGnNFA0djar0UY-31" value="Match" style="swimlane;fontStyle=0;childLayout=stackLayout;horizontal=1;startSize=26;fillColor=none;horizontalStack=0;resizeParent=1;resizeParentMax=0;resizeLast=0;collapsible=1;marginBottom=0;whiteSpace=wrap;html=1;fontFamily=Lexend;fontSource=https%3A%2F%2Ffonts.googleapis.com%2Fcss%3Ffamily%3DLexend;" parent="1" vertex="1">
          <mxGeometry x="400" y="385" width="140" height="78" as="geometry" />
        </mxCell>
        <mxCell id="5K8NoBRGnNFA0djar0UY-32" value="FinalResult" style="text;strokeColor=none;fillColor=none;align=left;verticalAlign=top;spacingLeft=4;spacingRight=4;overflow=hidden;rotatable=0;points=[[0,0.5],[1,0.5]];portConstraint=eastwest;whiteSpace=wrap;html=1;fontFamily=Lexend;fontSource=https%3A%2F%2Ffonts.googleapis.com%2Fcss%3Ffamily%3DLexend;" parent="5K8NoBRGnNFA0djar0UY-31" vertex="1">
          <mxGeometry y="26" width="140" height="26" as="geometry" />
        </mxCell>
        <mxCell id="5K8NoBRGnNFA0djar0UY-33" value="Events" style="text;strokeColor=none;fillColor=none;align=left;verticalAlign=top;spacingLeft=4;spacingRight=4;overflow=hidden;rotatable=0;points=[[0,0.5],[1,0.5]];portConstraint=eastwest;whiteSpace=wrap;html=1;fontFamily=Lexend;fontSource=https%3A%2F%2Ffonts.googleapis.com%2Fcss%3Ffamily%3DLexend;" parent="5K8NoBRGnNFA0djar0UY-31" vertex="1">
          <mxGeometry y="52" width="140" height="26" as="geometry" />
        </mxCell>
        <mxCell id="J6VYNuphooG4Fi7uj8pG-39" style="edgeStyle=orthogonalEdgeStyle;rounded=0;orthogonalLoop=1;jettySize=auto;html=1;entryX=0;entryY=0.5;entryDx=0;entryDy=0;endArrow=none;endFill=0;" edge="1" parent="1" source="5K8NoBRGnNFA0djar0UY-38" target="5K8NoBRGnNFA0djar0UY-3">
          <mxGeometry relative="1" as="geometry">
            <Array as="points">
              <mxPoint x="-180" y="531" />
              <mxPoint x="-180" y="222" />
            </Array>
          </mxGeometry>
        </mxCell>
        <mxCell id="5K8NoBRGnNFA0djar0UY-38" value="Player" style="swimlane;fontStyle=0;childLayout=stackLayout;horizontal=1;startSize=26;fillColor=none;horizontalStack=0;resizeParent=1;resizeParentMax=0;resizeLast=0;collapsible=1;marginBottom=0;whiteSpace=wrap;html=1;fontFamily=Lexend;fontSource=https%3A%2F%2Ffonts.googleapis.com%2Fcss%3Ffamily%3DLexend;" parent="1" vertex="1">
          <mxGeometry x="100" y="505" width="140" height="52" as="geometry" />
        </mxCell>
        <mxCell id="5K8NoBRGnNFA0djar0UY-39" value="Name" style="text;strokeColor=none;fillColor=none;align=left;verticalAlign=top;spacingLeft=4;spacingRight=4;overflow=hidden;rotatable=0;points=[[0,0.5],[1,0.5]];portConstraint=eastwest;whiteSpace=wrap;html=1;fontFamily=Lexend;fontSource=https%3A%2F%2Ffonts.googleapis.com%2Fcss%3Ffamily%3DLexend;" parent="5K8NoBRGnNFA0djar0UY-38" vertex="1">
          <mxGeometry y="26" width="140" height="26" as="geometry" />
        </mxCell>
        <mxCell id="5K8NoBRGnNFA0djar0UY-49" value="" style="endArrow=none;html=1;edgeStyle=orthogonalEdgeStyle;rounded=0;exitX=0.5;exitY=0;exitDx=0;exitDy=0;entryX=0.498;entryY=0.987;entryDx=0;entryDy=0;entryPerimeter=0;" parent="1" source="5K8NoBRGnNFA0djar0UY-23" target="5K8NoBRGnNFA0djar0UY-48" edge="1">
          <mxGeometry relative="1" as="geometry">
            <mxPoint x="170" y="320" as="sourcePoint" />
            <mxPoint x="210" y="290" as="targetPoint" />
            <Array as="points">
              <mxPoint x="210" y="385" />
            </Array>
          </mxGeometry>
        </mxCell>
        <mxCell id="5K8NoBRGnNFA0djar0UY-50" value="&amp;nbsp;*" style="edgeLabel;resizable=0;html=1;align=left;verticalAlign=bottom;fontFamily=Lexend;fontSource=https%3A%2F%2Ffonts.googleapis.com%2Fcss%3Ffamily%3DLexend;" parent="5K8NoBRGnNFA0djar0UY-49" connectable="0" vertex="1">
          <mxGeometry x="-1" relative="1" as="geometry">
            <mxPoint x="40" as="offset" />
          </mxGeometry>
        </mxCell>
        <mxCell id="5K8NoBRGnNFA0djar0UY-51" value="*" style="edgeLabel;resizable=0;html=1;align=right;verticalAlign=bottom;fontFamily=Lexend;fontSource=https%3A%2F%2Ffonts.googleapis.com%2Fcss%3Ffamily%3DLexend;" parent="5K8NoBRGnNFA0djar0UY-49" connectable="0" vertex="1">
          <mxGeometry x="1" relative="1" as="geometry">
            <mxPoint x="10" y="20" as="offset" />
          </mxGeometry>
        </mxCell>
        <mxCell id="J6VYNuphooG4Fi7uj8pG-1" value="Match Report" style="swimlane;fontStyle=0;childLayout=stackLayout;horizontal=1;startSize=26;fillColor=none;horizontalStack=0;resizeParent=1;resizeParentMax=0;resizeLast=0;collapsible=1;marginBottom=0;whiteSpace=wrap;html=1;fontFamily=Lexend;fontSource=https%3A%2F%2Ffonts.googleapis.com%2Fcss%3Ffamily%3DLexend;" vertex="1" parent="1">
          <mxGeometry x="308" y="183" width="140" height="104" as="geometry" />
        </mxCell>
        <mxCell id="J6VYNuphooG4Fi7uj8pG-2" value="Title" style="text;strokeColor=none;fillColor=none;align=left;verticalAlign=top;spacingLeft=4;spacingRight=4;overflow=hidden;rotatable=0;points=[[0,0.5],[1,0.5]];portConstraint=eastwest;whiteSpace=wrap;html=1;fontFamily=Lexend;fontSource=https%3A%2F%2Ffonts.googleapis.com%2Fcss%3Ffamily%3DLexend;" vertex="1" parent="J6VYNuphooG4Fi7uj8pG-1">
          <mxGeometry y="26" width="140" height="26" as="geometry" />
        </mxCell>
        <mxCell id="J6VYNuphooG4Fi7uj8pG-3" value="Body" style="text;strokeColor=none;fillColor=none;align=left;verticalAlign=top;spacingLeft=4;spacingRight=4;overflow=hidden;rotatable=0;points=[[0,0.5],[1,0.5]];portConstraint=eastwest;whiteSpace=wrap;html=1;fontFamily=Lexend;fontSource=https%3A%2F%2Ffonts.googleapis.com%2Fcss%3Ffamily%3DLexend;" vertex="1" parent="J6VYNuphooG4Fi7uj8pG-1">
          <mxGeometry y="52" width="140" height="26" as="geometry" />
        </mxCell>
        <mxCell id="J6VYNuphooG4Fi7uj8pG-8" value="Date" style="text;strokeColor=none;fillColor=none;align=left;verticalAlign=top;spacingLeft=4;spacingRight=4;overflow=hidden;rotatable=0;points=[[0,0.5],[1,0.5]];portConstraint=eastwest;whiteSpace=wrap;html=1;fontFamily=Lexend;fontSource=https%3A%2F%2Ffonts.googleapis.com%2Fcss%3Ffamily%3DLexend;" vertex="1" parent="J6VYNuphooG4Fi7uj8pG-1">
          <mxGeometry y="78" width="140" height="26" as="geometry" />
        </mxCell>
        <mxCell id="J6VYNuphooG4Fi7uj8pG-11" style="edgeStyle=orthogonalEdgeStyle;rounded=0;orthogonalLoop=1;jettySize=auto;html=1;exitX=1;exitY=0.5;exitDx=0;exitDy=0;endArrow=none;endFill=0;" edge="1" parent="1" source="5K8NoBRGnNFA0djar0UY-24" target="J6VYNuphooG4Fi7uj8pG-1">
          <mxGeometry relative="1" as="geometry" />
        </mxCell>
        <mxCell id="J6VYNuphooG4Fi7uj8pG-13" value="&amp;nbsp; 2" style="edgeLabel;resizable=0;html=1;align=left;verticalAlign=bottom;fontFamily=Lexend;fontSource=https%3A%2F%2Ffonts.googleapis.com%2Fcss%3Ffamily%3DLexend;" connectable="0" vertex="1" parent="1">
          <mxGeometry x="239" y="448" as="geometry" />
        </mxCell>
        <mxCell id="J6VYNuphooG4Fi7uj8pG-14" value="*&amp;nbsp;" style="edgeLabel;resizable=0;html=1;align=right;verticalAlign=bottom;fontFamily=Lexend;fontSource=https%3A%2F%2Ffonts.googleapis.com%2Fcss%3Ffamily%3DLexend;" connectable="0" vertex="1" parent="1">
          <mxGeometry x="373.0004320447056" y="306.0021777388582" as="geometry" />
        </mxCell>
        <mxCell id="J6VYNuphooG4Fi7uj8pG-15" value="*&amp;nbsp;" style="edgeLabel;resizable=0;html=1;align=right;verticalAlign=bottom;fontFamily=Lexend;fontSource=https%3A%2F%2Ffonts.googleapis.com%2Fcss%3Ffamily%3DLexend;" connectable="0" vertex="1" parent="1">
          <mxGeometry x="460.0004320447056" y="267.0021777388582" as="geometry" />
        </mxCell>
        <mxCell id="J6VYNuphooG4Fi7uj8pG-16" value="1" style="edgeLabel;resizable=0;html=1;align=right;verticalAlign=bottom;fontFamily=Lexend;fontSource=https%3A%2F%2Ffonts.googleapis.com%2Fcss%3Ffamily%3DLexend;" connectable="0" vertex="1" parent="1">
          <mxGeometry x="480.0004320447056" y="385.0021777388582" as="geometry" />
        </mxCell>
        <mxCell id="J6VYNuphooG4Fi7uj8pG-18" value="&amp;nbsp;0..1" style="edgeLabel;resizable=0;html=1;align=right;verticalAlign=bottom;fontFamily=Lexend;fontSource=https%3A%2F%2Ffonts.googleapis.com%2Fcss%3Ffamily%3DLexend;" connectable="0" vertex="1" parent="1">
          <mxGeometry x="191.0014285714285" y="479" as="geometry" />
        </mxCell>
        <mxCell id="J6VYNuphooG4Fi7uj8pG-19" value="&amp;nbsp; *" style="edgeLabel;resizable=0;html=1;align=left;verticalAlign=bottom;fontFamily=Lexend;fontSource=https%3A%2F%2Ffonts.googleapis.com%2Fcss%3Ffamily%3DLexend;" connectable="0" vertex="1" parent="1">
          <mxGeometry x="169" y="505" as="geometry" />
        </mxCell>
        <mxCell id="J6VYNuphooG4Fi7uj8pG-20" style="edgeStyle=orthogonalEdgeStyle;rounded=0;orthogonalLoop=1;jettySize=auto;html=1;entryX=0;entryY=0.5;entryDx=0;entryDy=0;endArrow=none;endFill=0;" edge="1" parent="1" source="5K8NoBRGnNFA0djar0UY-24" target="5K8NoBRGnNFA0djar0UY-32">
          <mxGeometry relative="1" as="geometry">
            <Array as="points">
              <mxPoint x="400" y="435" />
            </Array>
          </mxGeometry>
        </mxCell>
        <mxCell id="J6VYNuphooG4Fi7uj8pG-22" value="*&amp;nbsp;" style="edgeLabel;resizable=0;html=1;align=right;verticalAlign=bottom;fontFamily=Lexend;fontSource=https%3A%2F%2Ffonts.googleapis.com%2Fcss%3Ffamily%3DLexend;" connectable="0" vertex="1" parent="1">
          <mxGeometry x="398.0004320447056" y="450.0021777388582" as="geometry" />
        </mxCell>
        <mxCell id="J6VYNuphooG4Fi7uj8pG-23" value="&amp;nbsp; 2" style="edgeLabel;resizable=0;html=1;align=left;verticalAlign=bottom;fontFamily=Lexend;fontSource=https%3A%2F%2Ffonts.googleapis.com%2Fcss%3Ffamily%3DLexend;" connectable="0" vertex="1" parent="1">
          <mxGeometry x="239" y="424" as="geometry" />
        </mxCell>
        <mxCell id="J6VYNuphooG4Fi7uj8pG-25" value="&amp;nbsp;*" style="edgeLabel;resizable=0;html=1;align=left;verticalAlign=bottom;fontFamily=Lexend;fontSource=https%3A%2F%2Ffonts.googleapis.com%2Fcss%3Ffamily%3DLexend;" connectable="0" vertex="1" parent="1">
          <mxGeometry x="198" y="157" as="geometry" />
        </mxCell>
        <mxCell id="J6VYNuphooG4Fi7uj8pG-26" value="1&amp;nbsp;" style="edgeLabel;resizable=0;html=1;align=right;verticalAlign=bottom;fontFamily=Lexend;fontSource=https%3A%2F%2Ffonts.googleapis.com%2Fcss%3Ffamily%3DLexend;" connectable="0" vertex="1" parent="1">
          <mxGeometry x="207.00006277200214" y="108.00286907692724" as="geometry" />
        </mxCell>
        <mxCell id="J6VYNuphooG4Fi7uj8pG-32" value="TeamDetails" style="swimlane;fontStyle=0;childLayout=stackLayout;horizontal=1;startSize=26;fillColor=none;horizontalStack=0;resizeParent=1;resizeParentMax=0;resizeLast=0;collapsible=1;marginBottom=0;whiteSpace=wrap;html=1;fontFamily=Lexend;fontSource=https%3A%2F%2Ffonts.googleapis.com%2Fcss%3Ffamily%3DLexend;" vertex="1" parent="1">
          <mxGeometry x="-130" y="385" width="140" height="78" as="geometry" />
        </mxCell>
        <mxCell id="J6VYNuphooG4Fi7uj8pG-33" value="Name" style="text;strokeColor=none;fillColor=none;align=left;verticalAlign=top;spacingLeft=4;spacingRight=4;overflow=hidden;rotatable=0;points=[[0,0.5],[1,0.5]];portConstraint=eastwest;whiteSpace=wrap;html=1;fontFamily=Lexend;fontSource=https%3A%2F%2Ffonts.googleapis.com%2Fcss%3Ffamily%3DLexend;" vertex="1" parent="J6VYNuphooG4Fi7uj8pG-32">
          <mxGeometry y="26" width="140" height="26" as="geometry" />
        </mxCell>
        <mxCell id="J6VYNuphooG4Fi7uj8pG-34" value="Description" style="text;strokeColor=none;fillColor=none;align=left;verticalAlign=top;spacingLeft=4;spacingRight=4;overflow=hidden;rotatable=0;points=[[0,0.5],[1,0.5]];portConstraint=eastwest;whiteSpace=wrap;html=1;fontFamily=Lexend;fontSource=https%3A%2F%2Ffonts.googleapis.com%2Fcss%3Ffamily%3DLexend;" vertex="1" parent="J6VYNuphooG4Fi7uj8pG-32">
          <mxGeometry y="52" width="140" height="26" as="geometry" />
        </mxCell>
        <mxCell id="J6VYNuphooG4Fi7uj8pG-35" style="edgeStyle=orthogonalEdgeStyle;rounded=0;orthogonalLoop=1;jettySize=auto;html=1;endArrow=none;endFill=0;" edge="1" parent="1" source="J6VYNuphooG4Fi7uj8pG-33" target="5K8NoBRGnNFA0djar0UY-23">
          <mxGeometry relative="1" as="geometry" />
        </mxCell>
        <mxCell id="J6VYNuphooG4Fi7uj8pG-37" value="1" style="edgeLabel;resizable=0;html=1;align=right;verticalAlign=bottom;fontFamily=Lexend;fontSource=https%3A%2F%2Ffonts.googleapis.com%2Fcss%3Ffamily%3DLexend;" connectable="0" vertex="1" parent="1">
          <mxGeometry x="20.000432044705576" y="442.0021777388582" as="geometry" />
        </mxCell>
        <mxCell id="J6VYNuphooG4Fi7uj8pG-38" value="1" style="edgeLabel;resizable=0;html=1;align=right;verticalAlign=bottom;fontFamily=Lexend;fontSource=https%3A%2F%2Ffonts.googleapis.com%2Fcss%3Ffamily%3DLexend;" connectable="0" vertex="1" parent="1">
          <mxGeometry x="94.00043204470558" y="442.0021777388582" as="geometry" />
        </mxCell>
        <mxCell id="J6VYNuphooG4Fi7uj8pG-40" value="&amp;nbsp;*" style="edgeLabel;resizable=0;html=1;align=left;verticalAlign=bottom;fontFamily=Lexend;fontSource=https%3A%2F%2Ffonts.googleapis.com%2Fcss%3Ffamily%3DLexend;" connectable="0" vertex="1" parent="1">
          <mxGeometry x="87" y="547" as="geometry" />
        </mxCell>
        <mxCell id="J6VYNuphooG4Fi7uj8pG-41" value="&amp;nbsp;*" style="edgeLabel;resizable=0;html=1;align=left;verticalAlign=bottom;fontFamily=Lexend;fontSource=https%3A%2F%2Ffonts.googleapis.com%2Fcss%3Ffamily%3DLexend;" connectable="0" vertex="1" parent="1">
          <mxGeometry x="128" y="238" as="geometry" />
        </mxCell>
      </root>
    </mxGraphModel>
  </diagram>
</mxfile>
